<?xml version="1.0" encoding="utf-8"?>
<!-- Generator: Adobe Illustrator 26.0.2, SVG Export Plug-In . SVG Version: 6.00 Build 0)  -->
<svg version="1.1" id="Layer_1" xmlns="http://www.w3.org/2000/svg" xmlns:xlink="http://www.w3.org/1999/xlink" x="0px" y="0px"
	 viewBox="0 0 130 130" style="enable-background:new 0 0 130 130;" xml:space="preserve">
<style type="text/css">
	.st0{fill:#152172;}
</style>
<path class="st0" d="M65,3.2c34.1,0,61.8,27.7,61.8,61.8S99.1,126.8,65,126.8S3.2,99.1,3.2,65S30.9,3.2,65,3.2 M65,0.1L65,0.1
	C29.3,0.1,0.1,29.3,0.1,65s29.2,64.9,64.9,64.9s64.9-29.2,64.9-64.9S100.7,0.1,65,0.1"/>
<g>
	<path class="st0" d="M38.5,91.2c-3.6,0-6.8-0.8-9.7-2.4s-5.2-4-6.9-7.1c-1.7-3.1-2.6-6.9-2.6-11.4V57.8c0-6.7,1.9-11.8,5.7-15.4
		S33.9,37,40.3,37s11.4,1.7,14.8,5.1c3.5,3.4,5.2,8,5.2,13.8v0.3h-9.7v-0.6c0-1.8-0.4-3.5-1.2-5s-1.9-2.7-3.5-3.5
		c-1.5-0.9-3.5-1.3-5.8-1.3c-3.5,0-6.2,1.1-8.2,3.2c-2,2.1-3,5-3,8.7v12.8c0,3.6,1,6.5,3,8.7s4.8,3.3,8.3,3.3c3.6,0,6.2-0.9,7.8-2.8
		s2.5-4.3,2.5-7.1v-0.7H38.4v-8.3h22v26.6h-9.1v-5H50c-0.3,0.8-0.9,1.7-1.7,2.7c-0.8,0.9-1.9,1.7-3.5,2.4
		C43.3,90.8,41.2,91.2,38.5,91.2z"/>
	<path class="st0" d="M69.8,90.1V38h22.6c3.3,0,6.1,0.6,8.6,1.7c2.4,1.1,4.3,2.8,5.7,4.8s2,4.5,2,7.4v0.9c0,3.1-0.7,5.7-2.2,7.6
		c-1.5,1.9-3.3,3.3-5.5,4.2V66c2,0.1,3.5,0.8,4.6,2c1.1,1.3,1.6,2.9,1.6,5v17h-9.8V74.5c0-1.2-0.3-2.2-0.9-2.9
		c-0.6-0.7-1.7-1.1-3.1-1.1H79.6v19.7L69.8,90.1L69.8,90.1z M79.6,61.5h11.8c2.3,0,4.2-0.6,5.5-1.9s2-2.9,2-5v-0.7
		c0-2.1-0.6-3.8-1.9-5c-1.3-1.3-3.1-1.9-5.5-1.9H79.6V61.5z"/>
</g>
</svg>
