<svg width="48" height="48" viewBox="0 0 48 48" fill="none" xmlns="http://www.w3.org/2000/svg">
<path d="M0 12C0 5.37258 5.37258 0 12 0H36C42.6274 0 48 5.37258 48 12V36C48 42.6274 42.6274 48 36 48H12C5.37258 48 0 42.6274 0 36V12Z" fill="white"/>
<path fill-rule="evenodd" clip-rule="evenodd" d="M17 18C17 17.4477 17.4477 17 18 17H31V30C31 30.5523 30.5523 31 30 31C29.4477 31 29 30.5523 29 30V20.3333L18.6897 30.1527C18.2897 30.5336 17.6568 30.5181 17.2759 30.1182C16.895 29.7183 16.9104 29.0853 17.3104 28.7044L27.5001 19H18C17.4477 19 17 18.5523 17 18Z" fill="#152172"/>
<path d="M12 1H36V-1H12V1ZM47 12V36H49V12H47ZM36 47H12V49H36V47ZM1 36V12H-1V36H1ZM12 47C5.92487 47 1 42.0751 1 36H-1C-1 43.1797 4.8203 49 12 49V47ZM47 36C47 42.0751 42.0751 47 36 47V49C43.1797 49 49 43.1797 49 36H47ZM36 1C42.0751 1 47 5.92487 47 12H49C49 4.8203 43.1797 -1 36 -1V1ZM12 -1C4.8203 -1 -1 4.8203 -1 12H1C1 5.92487 5.92487 1 12 1V-1Z" fill="#131B6A" fill-opacity="0.05"/>
</svg>
