<svg width="26" height="27" viewBox="0 0 26 27" fill="none" xmlns="http://www.w3.org/2000/svg">
<path fill-rule="evenodd" clip-rule="evenodd" d="M7.60938 4.56234C7.60938 3.51584 8.45871 2.6665 9.50521 2.6665H21.9375C22.984 2.6665 23.8334 3.51584 23.8334 4.56234V17.0185C23.8334 17.5213 23.6336 18.0035 23.2781 18.3591C22.9226 18.7146 22.4403 18.9143 21.9375 18.9143H9.50521C9.0024 18.9143 8.52019 18.7146 8.16465 18.3591C7.80911 18.0035 7.60938 17.5213 7.60938 17.0185V4.56234ZM9.50521 4.2915C9.43338 4.2915 9.36449 4.32004 9.3137 4.37083C9.26291 4.42162 9.23437 4.49051 9.23437 4.56234V17.0185C9.23437 17.1691 9.35571 17.2893 9.50521 17.2893H21.9375C22.0094 17.2893 22.0783 17.2608 22.129 17.21C22.1798 17.1592 22.2084 17.0903 22.2084 17.0185V4.56234C22.2084 4.49051 22.1798 4.42162 22.129 4.37083C22.0783 4.32004 22.0094 4.2915 21.9375 4.2915H9.50521Z" fill="#152172"/>
<path d="M2.16126 12.145C2.16111 11.8959 2.21005 11.6493 2.30526 11.4191C2.40047 11.189 2.54009 10.9799 2.71615 10.8037C2.89221 10.6275 3.10125 10.4878 3.33133 10.3925C3.56142 10.2971 3.80803 10.248 4.05709 10.248H5.68751C5.90299 10.248 6.10966 10.3336 6.26203 10.486C6.4144 10.6384 6.50001 10.8451 6.50001 11.0605C6.50001 11.276 6.4144 11.4827 6.26203 11.6351C6.10966 11.7874 5.90299 11.873 5.68751 11.873H4.05709C3.98526 11.873 3.91637 11.9016 3.86558 11.9524C3.81479 12.0032 3.78626 12.0721 3.78626 12.1439L3.79167 22.4377C3.79167 22.5872 3.91192 22.7085 4.06251 22.7085H14.3542C14.426 22.7085 14.4949 22.68 14.5457 22.6292C14.5965 22.5784 14.625 22.5095 14.625 22.4377V20.8019C14.625 20.5864 14.7106 20.3797 14.863 20.2274C15.0154 20.075 15.222 19.9894 15.4375 19.9894C15.653 19.9894 15.8597 20.075 16.012 20.2274C16.1644 20.3797 16.25 20.5864 16.25 20.8019V22.4377C16.25 22.9405 16.0503 23.4227 15.6947 23.7783C15.3392 24.1338 14.857 24.3335 14.3542 24.3335H4.06251C3.5597 24.3335 3.07749 24.1338 2.72195 23.7783C2.36641 23.4227 2.16667 22.9405 2.16667 22.4377L2.16126 12.145Z" fill="#152172"/>
</svg>
