<svg width="23" height="23" viewBox="0 0 23 23" fill="none" xmlns="http://www.w3.org/2000/svg">
<path d="M11.5 0C5.15898 0 0 5.15898 0 11.5C0 17.841 5.15898 23 11.5 23C17.841 23 23 17.841 23 11.5C23 5.15898 17.841 0 11.5 0ZM11.5 22.1786C5.61159 22.1786 0.821429 17.388 0.821429 11.5C0.821429 5.612 5.61159 0.821429 11.5 0.821429C17.3884 0.821429 22.1786 5.612 22.1786 11.5C22.1786 17.388 17.3884 22.1786 11.5 22.1786Z" fill="#152172"/>
<path d="M16.4286 6.57144H6.57148C6.34436 6.57144 6.16077 6.75544 6.16077 6.98216C6.16077 7.20887 6.34436 7.39287 6.57148 7.39287H16.4286C16.6557 7.39287 16.8393 7.20887 16.8393 6.98216C16.8393 6.75544 16.6557 6.57144 16.4286 6.57144Z" fill="#152172"/>
<path d="M16.4286 11.0893H6.57148C6.34436 11.0893 6.16077 11.2733 6.16077 11.5C6.16077 11.7267 6.34436 11.9107 6.57148 11.9107H16.4286C16.6557 11.9107 16.8393 11.7267 16.8393 11.5C16.8393 11.2733 16.6557 11.0893 16.4286 11.0893Z" fill="#152172"/>
<path d="M16.4286 15.6071H6.57148C6.34436 15.6071 6.16077 15.7911 6.16077 16.0179C6.16077 16.2446 6.34436 16.4286 6.57148 16.4286H16.4286C16.6557 16.4286 16.8393 16.2446 16.8393 16.0179C16.8393 15.7911 16.6557 15.6071 16.4286 15.6071Z" fill="#152172"/>
</svg>
