<svg width="32" height="32" viewBox="0 0 32 32" fill="none" xmlns="http://www.w3.org/2000/svg">
<circle cx="16" cy="16" r="15" stroke="#152172" stroke-width="2"/>
<path opacity="0.9" d="M16.8334 8.5C14.8443 8.5 12.9366 9.29018 11.5301 10.6967C10.1236 12.1032 9.33337 14.0109 9.33337 16H6.83337L10.0792 19.2458L10.1375 19.3667L13.5 16H11C10.9982 14.6503 11.4644 13.3418 12.3193 12.2974C13.1742 11.2529 14.3647 10.5372 15.6881 10.2723C17.0116 10.0073 18.3859 10.2094 19.577 10.8442C20.768 11.479 21.7021 12.5072 22.2201 13.7535C22.738 14.9999 22.8078 16.3872 22.4174 17.6792C22.027 18.9712 21.2007 20.0879 20.0793 20.8389C18.9579 21.5899 17.6108 21.9288 16.2675 21.7979C14.9242 21.667 13.6678 21.0743 12.7125 20.1208L11.5334 21.3C12.4053 22.173 13.4791 22.8174 14.6597 23.1761C15.8403 23.5348 17.0911 23.5967 18.3013 23.3562C19.5115 23.1158 20.6437 22.5806 21.5976 21.7979C22.5514 21.0152 23.2974 20.0092 23.7694 18.8692C24.2415 17.7292 24.4249 16.4904 24.3036 15.2625C24.1823 14.0346 23.7599 12.8556 23.0739 11.8301C22.3879 10.8045 21.4594 9.96403 20.3709 9.38315C19.2823 8.80226 18.0672 8.49892 16.8334 8.5ZM16 12.6667V16.8333L19.5667 18.95L20.1667 17.9375L17.25 16.2083V12.6667H16Z" fill="#152172"/>
</svg>
