<svg width="48" height="48" viewBox="0 0 48 48" fill="none" xmlns="http://www.w3.org/2000/svg">
<path d="M0 12C0 5.37258 5.37258 0 12 0H36C42.6274 0 48 5.37258 48 12V36C48 42.6274 42.6274 48 36 48H12C5.37258 48 0 42.6274 0 36V12Z" fill="white"/>
<path fill-rule="evenodd" clip-rule="evenodd" d="M31 30C31 30.5523 30.5523 31 30 31H17V18C17 17.4477 17.4477 17 18 17C18.5523 17 19 17.4477 19 18V27.6667L29.3103 17.8473C29.7103 17.4664 30.3432 17.4819 30.7241 17.8818C31.105 18.2817 31.0896 18.9147 30.6896 19.2956L20.4999 29H30C30.5523 29 31 29.4477 31 30Z" fill="#E7A634"/>
<path d="M12 1H36V-1H12V1ZM47 12V36H49V12H47ZM36 47H12V49H36V47ZM1 36V12H-1V36H1ZM12 47C5.92487 47 1 42.0751 1 36H-1C-1 43.1797 4.8203 49 12 49V47ZM47 36C47 42.0751 42.0751 47 36 47V49C43.1797 49 49 43.1797 49 36H47ZM36 1C42.0751 1 47 5.92487 47 12H49C49 4.8203 43.1797 -1 36 -1V1ZM12 -1C4.8203 -1 -1 4.8203 -1 12H1C1 5.92487 5.92487 1 12 1V-1Z" fill="#131B6A" fill-opacity="0.05"/>
</svg>
