<svg id="Layer_1" data-name="Layer 1" xmlns="http://www.w3.org/2000/svg" xmlns:xlink="http://www.w3.org/1999/xlink" viewBox="0 0 39.21 39.21"><defs><style>.cls-1,.cls-2{fill:none;}.cls-2{stroke:#231f20;stroke-miterlimit:10;}.cls-3{opacity:0.6;}.cls-4{clip-path:url(#clip-path);}.cls-5{fill:#020202;}.cls-6{opacity:0.45;}.cls-7{clip-path:url(#clip-path-2);}.cls-8{opacity:0.8;}.cls-9{clip-path:url(#clip-path-3);}.cls-10{clip-path:url(#clip-path-4);}.cls-11{clip-path:url(#clip-path-5);}</style><clipPath id="clip-path" transform="translate(-0.39 -0.39)"><rect class="cls-1" x="11.62" y="16.69" width="17.43" height="9.12"/></clipPath><clipPath id="clip-path-2" transform="translate(-0.39 -0.39)"><rect class="cls-1" x="11.62" y="6.19" width="8.72" height="19.62"/></clipPath><clipPath id="clip-path-3" transform="translate(-0.39 -0.39)"><rect class="cls-1" x="20.34" y="6.19" width="8.72" height="19.62"/></clipPath><clipPath id="clip-path-4" transform="translate(-0.39 -0.39)"><rect class="cls-1" x="11.62" y="22.31" width="8.72" height="12.28"/></clipPath><clipPath id="clip-path-5" transform="translate(-0.39 -0.39)"><rect class="cls-1" x="20.34" y="22.31" width="8.72" height="12.28"/></clipPath></defs><circle class="cls-2" cx="19.61" cy="19.61" r="19.11"/><g class="cls-3"><g class="cls-4"><path class="cls-5" d="M20.34,16.69l-8.72,4,8.72,5.15,8.71-5.15Z" transform="translate(-0.39 -0.39)"/></g></g><g class="cls-6"><g class="cls-7"><path class="cls-5" d="M11.62,20.66l8.72,5.15V6.19Z" transform="translate(-0.39 -0.39)"/></g></g><g class="cls-8"><g class="cls-9"><path class="cls-5" d="M20.34,6.19V25.81l8.71-5.15Z" transform="translate(-0.39 -0.39)"/></g></g><g class="cls-6"><g class="cls-10"><path class="cls-5" d="M11.62,22.31l8.72,12.28V27.46Z" transform="translate(-0.39 -0.39)"/></g></g><g class="cls-8"><g class="cls-11"><path class="cls-5" d="M20.34,27.46v7.13l8.72-12.28Z" transform="translate(-0.39 -0.39)"/></g></g></svg>