<svg width="32" height="32" viewBox="0 0 32 32" fill="none" xmlns="http://www.w3.org/2000/svg">
<circle cx="16" cy="16" r="15" stroke="#152172" stroke-width="2"/>
<g clip-path="url(#clip0_227_2682)">
<path d="M23.1916 23H8.75958C8.32553 23 8 22.6786 8 22.25V9.75001C8 9.32143 8.32553 9 8.75958 9H23.1916C24.2045 9 25 9.7855 25 10.7498V21.2144C24.9986 21.6875 24.8076 22.1409 24.4688 22.4754C24.1299 22.81 23.6708 22.9986 23.1916 23ZM23.4449 14.3927H17.2957V17.6428H23.4449V14.3927ZM23.4449 19.1428H16.5002C16.0661 19.1428 15.7406 18.8214 15.7406 18.3928V13.6072C15.7406 13.1786 16.0661 12.8572 16.5002 12.8572H23.4449V10.7498C23.4457 10.7167 23.4397 10.6839 23.4272 10.6532C23.4148 10.6225 23.3961 10.5947 23.3724 10.5713C23.3488 10.548 23.3205 10.5296 23.2894 10.5173C23.2583 10.5051 23.2251 10.4992 23.1916 10.5H9.51916V21.4642H23.1916C23.2251 21.465 23.2583 21.4591 23.2894 21.4468C23.3205 21.4346 23.3488 21.4162 23.3724 21.3929C23.3961 21.3695 23.4148 21.3416 23.4272 21.311C23.4397 21.2803 23.4457 21.2474 23.4449 21.2144V19.1428Z" fill="#152172"/>
<path d="M19.1404 16.7498H18.8874C18.4533 16.7498 18.1278 16.4283 18.1278 15.9997C18.1278 15.5712 18.4533 15.2497 18.8874 15.2497H19.1404C19.5744 15.2497 19.8999 15.5712 19.8999 15.9997C19.8999 16.4283 19.5744 16.7498 19.1404 16.7498Z" fill="#152172"/>
</g>
<defs>
<clipPath id="clip0_227_2682">
<rect width="17" height="14" fill="white" transform="matrix(1 0 0 -1 8 23)"/>
</clipPath>
</defs>
</svg>
