<svg width="32" height="32" viewBox="0 0 32 32" fill="none" xmlns="http://www.w3.org/2000/svg">
<path d="M14.344 18.32V17.936C14.344 17.392 14.4507 16.944 14.664 16.592C14.888 16.24 15.2453 15.9467 15.736 15.712L16.008 15.584C16.488 15.36 16.856 15.12 17.112 14.864C17.368 14.608 17.496 14.2667 17.496 13.84C17.496 13.5307 17.416 13.2693 17.256 13.056C17.1067 12.832 16.8933 12.6613 16.616 12.544C16.3387 12.4267 16.0133 12.368 15.64 12.368C15.256 12.368 14.9093 12.432 14.6 12.56C14.3013 12.688 14.0613 12.88 13.88 13.136C13.7093 13.392 13.624 13.712 13.624 14.096V14.448H11.544V14.128C11.544 13.392 11.7253 12.7573 12.088 12.224C12.4507 11.6907 12.9413 11.2853 13.56 11.008C14.1787 10.72 14.872 10.576 15.64 10.576C16.3973 10.576 17.0693 10.7147 17.656 10.992C18.2533 11.2693 18.7227 11.6533 19.064 12.144C19.4053 12.6347 19.576 13.2 19.576 13.84C19.576 14.48 19.4587 15.008 19.224 15.424C18.9893 15.8293 18.6907 16.16 18.328 16.416C17.976 16.6613 17.6133 16.8747 17.24 17.056L16.968 17.184C16.776 17.2693 16.6427 17.376 16.568 17.504C16.4933 17.6213 16.456 17.7973 16.456 18.032V18.32H14.344ZM15.464 22.224C15.0373 22.224 14.6747 22.0853 14.376 21.808C14.088 21.52 13.944 21.152 13.944 20.704C13.944 20.256 14.088 19.8933 14.376 19.616C14.6747 19.328 15.0373 19.184 15.464 19.184C15.9013 19.184 16.264 19.328 16.552 19.616C16.84 19.8933 16.984 20.256 16.984 20.704C16.984 21.152 16.84 21.52 16.552 21.808C16.264 22.0853 15.9013 22.224 15.464 22.224Z" fill="#152172"/>
<circle cx="16" cy="16" r="15" stroke="#152172" stroke-width="2"/>
</svg>
