<?xml version="1.0" encoding="utf-8"?>
<!-- Generator: Adobe Illustrator 26.0.2, SVG Export Plug-In . SVG Version: 6.00 Build 0)  -->
<svg version="1.1" id="Layer_1" xmlns="http://www.w3.org/2000/svg" xmlns:xlink="http://www.w3.org/1999/xlink" x="0px" y="0px"
	 viewBox="0 0 460 460" style="enable-background:new 0 0 460 460;" xml:space="preserve">
<style type="text/css">
	.st0{fill:#152172;}
</style>
<g id="XMLID_1055_">
	<g>
		<path class="st0" d="M230,0C103,0,0,103,0,230s103,230,230,230s230-103,230-230S357,0,230,0z M268.3,377.4c0,8.7-7,15.7-15.7,15.7
			h-43.1c-8.7,0-15.7-7-15.7-15.7V202.5c0-8.7,7-15.7,15.7-15.7h43.1c8.7,0,15.7,7,15.7,15.7V377.4z M230,157c-21.5,0-39-17.5-39-39
			s17.5-39,39-39s39,17.5,39,39S251.5,157,230,157z"/>
	</g>
</g>
</svg>
