<?xml version="1.0" encoding="utf-8"?>
<!-- Generator: Adobe Illustrator 16.0.0, SVG Export Plug-In . SVG Version: 6.00 Build 0)  -->
<!DOCTYPE svg PUBLIC "-//W3C//DTD SVG 1.1//EN" "http://www.w3.org/Graphics/SVG/1.1/DTD/svg11.dtd">
<svg version="1.1" id="Layer_1" xmlns="http://www.w3.org/2000/svg" xmlns:xlink="http://www.w3.org/1999/xlink" x="0px" y="0px"
	 width="50px" height="50px" viewBox="0 0 50 50" enable-background="new 0 0 50 50" xml:space="preserve">
<g>
	<path fill="#FFFFFF" d="M39,26.25c0,0.967-0.783,1.75-1.75,1.75h-24.5C11.783,28,11,27.217,11,26.25v-0.5
		c0-0.966,0.783-1.75,1.75-1.75h24.5c0.967,0,1.75,0.784,1.75,1.75V26.25z"/>
	<path fill="#FFFFFF" d="M39,16c0,1.104-0.896,2-2,2H20c-1.104,0-2-0.896-2-2l0,0c0-1.104,0.896-2,2-2h17C38.104,14,39,14.896,39,16
		L39,16z"/>
	<path fill="#FFFFFF" d="M39,35c0,1.104-0.896,2-2,2H20c-1.104,0-2-0.896-2-2l0,0c0-1.104,0.896-2,2-2h17C38.104,33,39,33.896,39,35
		L39,35z"/>
</g>
</svg>
