<?xml version="1.0" encoding="utf-8"?>
<!-- Generator: Adobe Illustrator 25.4.1, SVG Export Plug-In . SVG Version: 6.00 Build 0)  -->
<svg version="1.1" id="Layer_1" xmlns="http://www.w3.org/2000/svg" xmlns:xlink="http://www.w3.org/1999/xlink" x="0px" y="0px"
	 viewBox="0 0 30 30" style="enable-background:new 0 0 30 30;" xml:space="preserve">
<style type="text/css">
	.st0{fill:#FFFFFF;stroke:#2F235A;stroke-miterlimit:10;}
	.st1{enable-background:new    ;}
	.st2{fill:#2F235A;}
</style>
<circle class="st0" cx="15.2" cy="14.7" r="13.9"/>
<g class="st1">
	<path class="st2" d="M9.5,20.2c-0.8,0-1.5-0.2-2.1-0.5c-0.6-0.4-1.1-0.9-1.5-1.5c-0.4-0.7-0.6-1.5-0.6-2.5v-2.7
		c0-1.5,0.4-2.6,1.2-3.4s1.9-1.2,3.4-1.2c1.4,0,2.5,0.4,3.2,1.1s1.1,1.8,1.1,3v0.1h-2.1v-0.1c0-0.4-0.1-0.8-0.3-1.1
		c-0.2-0.3-0.4-0.6-0.8-0.8s-0.8-0.3-1.3-0.3c-0.8,0-1.4,0.2-1.8,0.7s-0.7,1.1-0.7,1.9v2.8c0,0.8,0.2,1.4,0.7,1.9
		c0.4,0.5,1,0.7,1.8,0.7c0.8,0,1.4-0.2,1.7-0.6c0.4-0.4,0.5-0.9,0.5-1.6V16H9.4v-1.8h4.8V20h-2v-1.1H12c-0.1,0.2-0.2,0.4-0.4,0.6
		c-0.2,0.2-0.4,0.4-0.8,0.5C10.5,20.1,10,20.2,9.5,20.2z"/>
	<path class="st2" d="M16.3,20V8.6h4.9c0.7,0,1.3,0.1,1.9,0.4s0.9,0.6,1.2,1.1c0.3,0.5,0.4,1,0.4,1.6v0.2c0,0.7-0.2,1.2-0.5,1.7
		c-0.3,0.4-0.7,0.7-1.2,0.9v0.3c0.4,0,0.8,0.2,1,0.4c0.2,0.3,0.4,0.6,0.4,1.1V20h-2.1v-3.4c0-0.3-0.1-0.5-0.2-0.6s-0.4-0.2-0.7-0.2
		h-3V20H16.3z M18.4,13.7H21c0.5,0,0.9-0.1,1.2-0.4c0.3-0.3,0.4-0.6,0.4-1.1V12c0-0.5-0.1-0.8-0.4-1.1s-0.7-0.4-1.2-0.4h-2.6V13.7z"
		/>
</g>
</svg>
